<mxfile host="app.diagrams.net" modified="2024-09-28T19:27:12.603Z" agent="Mozilla/5.0 (Macintosh; Intel Mac OS X 10_15_7) AppleWebKit/537.36 (KHTML, like Gecko) Chrome/120.0.0.0 Safari/537.36" etag="qhZA7nhqsexj8ZNR_XFt" version="21.8.1" type="device">
  <diagram name="Страница — 1" id="DQRZB8wsY0Es5-H4y2CS">
    <mxGraphModel dx="1470" dy="2148" grid="1" gridSize="10" guides="1" tooltips="1" connect="1" arrows="1" fold="1" page="1" pageScale="1" pageWidth="827" pageHeight="1169" math="0" shadow="0">
      <root>
        <mxCell id="0" />
        <mxCell id="1" parent="0" />
        <mxCell id="x9cxGXDTbsu_pRV74q6P-38" style="edgeStyle=orthogonalEdgeStyle;rounded=0;orthogonalLoop=1;jettySize=auto;html=1;exitX=1;exitY=0.5;exitDx=0;exitDy=0;" edge="1" parent="1" source="x9cxGXDTbsu_pRV74q6P-2" target="x9cxGXDTbsu_pRV74q6P-37">
          <mxGeometry relative="1" as="geometry" />
        </mxCell>
        <mxCell id="x9cxGXDTbsu_pRV74q6P-2" value="processing" style="whiteSpace=wrap;html=1;aspect=fixed;" vertex="1" parent="1">
          <mxGeometry x="640" y="160" width="80" height="80" as="geometry" />
        </mxCell>
        <mxCell id="x9cxGXDTbsu_pRV74q6P-3" value="worker 1 (островок)" style="rounded=0;whiteSpace=wrap;html=1;" vertex="1" parent="1">
          <mxGeometry x="280" y="100" width="120" height="30" as="geometry" />
        </mxCell>
        <mxCell id="x9cxGXDTbsu_pRV74q6P-4" value="worker 2 (ozon travel)" style="rounded=0;whiteSpace=wrap;html=1;" vertex="1" parent="1">
          <mxGeometry x="280" y="150" width="120" height="30" as="geometry" />
        </mxCell>
        <mxCell id="x9cxGXDTbsu_pRV74q6P-5" value="worker N (mts travel)" style="rounded=0;whiteSpace=wrap;html=1;" vertex="1" parent="1">
          <mxGeometry x="280" y="250" width="120" height="30" as="geometry" />
        </mxCell>
        <mxCell id="x9cxGXDTbsu_pRV74q6P-6" value="worker ... (ya travel)" style="rounded=0;whiteSpace=wrap;html=1;" vertex="1" parent="1">
          <mxGeometry x="280" y="200" width="120" height="30" as="geometry" />
        </mxCell>
        <mxCell id="x9cxGXDTbsu_pRV74q6P-9" value="ml model" style="ellipse;shape=cloud;whiteSpace=wrap;html=1;" vertex="1" parent="1">
          <mxGeometry x="600" width="120" height="80" as="geometry" />
        </mxCell>
        <mxCell id="x9cxGXDTbsu_pRV74q6P-14" value="" style="shape=cylinder3;whiteSpace=wrap;html=1;boundedLbl=1;backgroundOutline=1;size=15;rotation=91;" vertex="1" parent="1">
          <mxGeometry x="500" y="150" width="60" height="80" as="geometry" />
        </mxCell>
        <mxCell id="x9cxGXDTbsu_pRV74q6P-18" value="" style="endArrow=classic;html=1;rounded=0;entryX=0.5;entryY=1;entryDx=0;entryDy=0;entryPerimeter=0;exitX=0.969;exitY=1.116;exitDx=0;exitDy=0;exitPerimeter=0;" edge="1" parent="1" source="x9cxGXDTbsu_pRV74q6P-3" target="x9cxGXDTbsu_pRV74q6P-14">
          <mxGeometry width="50" height="50" relative="1" as="geometry">
            <mxPoint x="400" y="120" as="sourcePoint" />
            <mxPoint x="470" y="180" as="targetPoint" />
          </mxGeometry>
        </mxCell>
        <mxCell id="x9cxGXDTbsu_pRV74q6P-19" value="" style="endArrow=classic;html=1;rounded=0;entryX=0.641;entryY=1.003;entryDx=0;entryDy=0;entryPerimeter=0;exitX=1;exitY=0.5;exitDx=0;exitDy=0;" edge="1" parent="1" source="x9cxGXDTbsu_pRV74q6P-5" target="x9cxGXDTbsu_pRV74q6P-14">
          <mxGeometry width="50" height="50" relative="1" as="geometry">
            <mxPoint x="400" y="270" as="sourcePoint" />
            <mxPoint x="450" y="220" as="targetPoint" />
          </mxGeometry>
        </mxCell>
        <mxCell id="x9cxGXDTbsu_pRV74q6P-21" value="" style="endArrow=classic;startArrow=classic;html=1;rounded=0;exitX=0.5;exitY=0;exitDx=0;exitDy=0;entryX=0.631;entryY=0.934;entryDx=0;entryDy=0;entryPerimeter=0;" edge="1" parent="1" source="x9cxGXDTbsu_pRV74q6P-2" target="x9cxGXDTbsu_pRV74q6P-9">
          <mxGeometry width="50" height="50" relative="1" as="geometry">
            <mxPoint x="640" y="135" as="sourcePoint" />
            <mxPoint x="670" y="95" as="targetPoint" />
          </mxGeometry>
        </mxCell>
        <mxCell id="x9cxGXDTbsu_pRV74q6P-22" value="" style="endArrow=classic;html=1;rounded=0;entryX=-0.039;entryY=0.396;entryDx=0;entryDy=0;entryPerimeter=0;exitX=0.5;exitY=0;exitDx=0;exitDy=0;exitPerimeter=0;" edge="1" parent="1" source="x9cxGXDTbsu_pRV74q6P-14" target="x9cxGXDTbsu_pRV74q6P-2">
          <mxGeometry width="50" height="50" relative="1" as="geometry">
            <mxPoint x="550" y="200" as="sourcePoint" />
            <mxPoint x="600" y="150" as="targetPoint" />
          </mxGeometry>
        </mxCell>
        <mxCell id="x9cxGXDTbsu_pRV74q6P-24" value="db" style="shape=cylinder3;whiteSpace=wrap;html=1;boundedLbl=1;backgroundOutline=1;size=15;" vertex="1" parent="1">
          <mxGeometry x="650" y="290" width="60" height="80" as="geometry" />
        </mxCell>
        <mxCell id="x9cxGXDTbsu_pRV74q6P-27" value="" style="endArrow=classic;html=1;rounded=0;exitX=0.25;exitY=1;exitDx=0;exitDy=0;entryX=0.287;entryY=0.044;entryDx=0;entryDy=0;entryPerimeter=0;" edge="1" parent="1" source="x9cxGXDTbsu_pRV74q6P-2" target="x9cxGXDTbsu_pRV74q6P-24">
          <mxGeometry width="50" height="50" relative="1" as="geometry">
            <mxPoint x="720" y="260" as="sourcePoint" />
            <mxPoint x="770" y="210" as="targetPoint" />
          </mxGeometry>
        </mxCell>
        <mxCell id="x9cxGXDTbsu_pRV74q6P-28" value="" style="endArrow=classic;html=1;rounded=0;exitX=0.704;exitY=1.032;exitDx=0;exitDy=0;exitPerimeter=0;" edge="1" parent="1" source="x9cxGXDTbsu_pRV74q6P-2" target="x9cxGXDTbsu_pRV74q6P-24">
          <mxGeometry width="50" height="50" relative="1" as="geometry">
            <mxPoint x="720" y="260" as="sourcePoint" />
            <mxPoint x="770" y="210" as="targetPoint" />
          </mxGeometry>
        </mxCell>
        <mxCell id="x9cxGXDTbsu_pRV74q6P-29" value="1. сырые данные&lt;br&gt;2. результат из модели" style="text;html=1;align=center;verticalAlign=middle;resizable=0;points=[];autosize=1;strokeColor=none;fillColor=none;" vertex="1" parent="1">
          <mxGeometry x="690" y="250" width="160" height="40" as="geometry" />
        </mxCell>
        <mxCell id="x9cxGXDTbsu_pRV74q6P-30" value="sql : id | date | address | cost | new_cost&amp;nbsp;&lt;br&gt;&lt;br&gt;clickhouse / mongodb (?) : jsonData" style="rounded=1;whiteSpace=wrap;html=1;" vertex="1" parent="1">
          <mxGeometry x="540" y="380" width="300" height="60" as="geometry" />
        </mxCell>
        <mxCell id="x9cxGXDTbsu_pRV74q6P-43" style="edgeStyle=orthogonalEdgeStyle;rounded=0;orthogonalLoop=1;jettySize=auto;html=1;exitX=0.5;exitY=1;exitDx=0;exitDy=0;entryX=0.5;entryY=0;entryDx=0;entryDy=0;" edge="1" parent="1" source="x9cxGXDTbsu_pRV74q6P-32" target="x9cxGXDTbsu_pRV74q6P-36">
          <mxGeometry relative="1" as="geometry" />
        </mxCell>
        <mxCell id="x9cxGXDTbsu_pRV74q6P-46" style="edgeStyle=orthogonalEdgeStyle;rounded=0;orthogonalLoop=1;jettySize=auto;html=1;exitX=0;exitY=0.5;exitDx=0;exitDy=0;entryX=1;entryY=0.5;entryDx=0;entryDy=0;" edge="1" parent="1" source="x9cxGXDTbsu_pRV74q6P-32" target="x9cxGXDTbsu_pRV74q6P-45">
          <mxGeometry relative="1" as="geometry" />
        </mxCell>
        <mxCell id="x9cxGXDTbsu_pRV74q6P-32" value="api" style="whiteSpace=wrap;html=1;aspect=fixed;" vertex="1" parent="1">
          <mxGeometry x="905" y="60" width="80" height="80" as="geometry" />
        </mxCell>
        <mxCell id="x9cxGXDTbsu_pRV74q6P-34" style="edgeStyle=orthogonalEdgeStyle;rounded=0;orthogonalLoop=1;jettySize=auto;html=1;" edge="1" parent="1" source="x9cxGXDTbsu_pRV74q6P-33" target="x9cxGXDTbsu_pRV74q6P-32">
          <mxGeometry relative="1" as="geometry" />
        </mxCell>
        <mxCell id="x9cxGXDTbsu_pRV74q6P-33" value="WEB" style="shape=umlActor;verticalLabelPosition=bottom;verticalAlign=top;html=1;outlineConnect=0;" vertex="1" parent="1">
          <mxGeometry x="930" y="-70" width="30" height="60" as="geometry" />
        </mxCell>
        <mxCell id="x9cxGXDTbsu_pRV74q6P-35" value="alert-db" style="shape=cylinder3;whiteSpace=wrap;html=1;boundedLbl=1;backgroundOutline=1;size=15;" vertex="1" parent="1">
          <mxGeometry x="915" y="290" width="60" height="80" as="geometry" />
        </mxCell>
        <mxCell id="x9cxGXDTbsu_pRV74q6P-42" style="edgeStyle=orthogonalEdgeStyle;rounded=0;orthogonalLoop=1;jettySize=auto;html=1;exitX=1;exitY=0.5;exitDx=0;exitDy=0;" edge="1" parent="1" source="x9cxGXDTbsu_pRV74q6P-36" target="x9cxGXDTbsu_pRV74q6P-41">
          <mxGeometry relative="1" as="geometry" />
        </mxCell>
        <mxCell id="x9cxGXDTbsu_pRV74q6P-36" value="alert-service" style="whiteSpace=wrap;html=1;aspect=fixed;" vertex="1" parent="1">
          <mxGeometry x="905" y="160" width="80" height="80" as="geometry" />
        </mxCell>
        <mxCell id="x9cxGXDTbsu_pRV74q6P-39" style="edgeStyle=orthogonalEdgeStyle;rounded=0;orthogonalLoop=1;jettySize=auto;html=1;exitX=0.5;exitY=0;exitDx=0;exitDy=0;exitPerimeter=0;entryX=0;entryY=0.5;entryDx=0;entryDy=0;" edge="1" parent="1" source="x9cxGXDTbsu_pRV74q6P-37" target="x9cxGXDTbsu_pRV74q6P-36">
          <mxGeometry relative="1" as="geometry" />
        </mxCell>
        <mxCell id="x9cxGXDTbsu_pRV74q6P-37" value="" style="shape=cylinder3;whiteSpace=wrap;html=1;boundedLbl=1;backgroundOutline=1;size=15;rotation=89;" vertex="1" parent="1">
          <mxGeometry x="790" y="160" width="60" height="80" as="geometry" />
        </mxCell>
        <mxCell id="x9cxGXDTbsu_pRV74q6P-40" style="edgeStyle=orthogonalEdgeStyle;rounded=0;orthogonalLoop=1;jettySize=auto;html=1;exitX=0.5;exitY=1;exitDx=0;exitDy=0;entryX=0.5;entryY=0;entryDx=0;entryDy=0;entryPerimeter=0;" edge="1" parent="1" source="x9cxGXDTbsu_pRV74q6P-36" target="x9cxGXDTbsu_pRV74q6P-35">
          <mxGeometry relative="1" as="geometry" />
        </mxCell>
        <mxCell id="x9cxGXDTbsu_pRV74q6P-41" value="email, push ...." style="rounded=1;whiteSpace=wrap;html=1;" vertex="1" parent="1">
          <mxGeometry x="1040" y="170" width="120" height="60" as="geometry" />
        </mxCell>
        <mxCell id="x9cxGXDTbsu_pRV74q6P-45" value="dynamic-config&lt;br&gt;(redis/in_memory)" style="rounded=1;whiteSpace=wrap;html=1;" vertex="1" parent="1">
          <mxGeometry x="750" y="70" width="120" height="60" as="geometry" />
        </mxCell>
        <mxCell id="x9cxGXDTbsu_pRV74q6P-47" value="какой контракт?" style="whiteSpace=wrap;html=1;fillColor=#ffe6cc;strokeColor=#d79b00;" vertex="1" parent="1">
          <mxGeometry x="1020" y="-30" width="120" height="60" as="geometry" />
        </mxCell>
        <mxCell id="x9cxGXDTbsu_pRV74q6P-50" value="1. реализуем worker&lt;br&gt;1.1 делаем запрос в островок&lt;br&gt;1.2 пишем в редис через метод produce&lt;br&gt;&lt;br&gt;2. processing&amp;nbsp;&lt;br&gt;2.1 через редис получает инфу отельных номерах&lt;br&gt;2.2 сохраняет данные в базу (преположитель clickhouse)&lt;br&gt;2.3 отправляет данные в модель, сохраняем ответ модели&lt;br&gt;(2.2 &amp;amp; 2.3 - можно выполнить конкурентно)&lt;br&gt;2.4 на базе динамического конфига принимает решение о создании алерта &lt;br&gt;(когда цена слишком низкая или высокая)&lt;br&gt;2.5 через реди отправляем алерт&lt;br&gt;&lt;br&gt;3. alert service&lt;br&gt;3.1 получаем данные из редиса об алерте&lt;br&gt;3.2 сохраняем алерт в базу&lt;br&gt;3.3 формируем рассылку (разным пользователям, разные алерты)&lt;br&gt;3.4 отправляем по разным каналам алерты (email/push) &lt;br&gt;(? сохранять лог рассылки)&lt;br&gt;3.5 api метод получения алерта по различным параметрам (id отеля, id региона ...)&lt;br&gt;&lt;br&gt;4. ml model&lt;br&gt;....&lt;br&gt;&lt;br&gt;5. infra&lt;br&gt;5.1 подключить redis&lt;br&gt;5.2 подключить clickhouse" style="text;html=1;align=center;verticalAlign=middle;resizable=0;points=[];autosize=1;strokeColor=none;fillColor=none;" vertex="1" parent="1">
          <mxGeometry x="30" y="340" width="490" height="400" as="geometry" />
        </mxCell>
        <mxCell id="x9cxGXDTbsu_pRV74q6P-51" value="менеджер островка может подписаться на алерты с определенных отлелей/регионов" style="whiteSpace=wrap;html=1;fillColor=#ffe6cc;strokeColor=#d79b00;" vertex="1" parent="1">
          <mxGeometry x="1040" y="290" width="150" height="100" as="geometry" />
        </mxCell>
        <mxCell id="x9cxGXDTbsu_pRV74q6P-52" value="сохрание лога в кликхаус не обязательно&lt;br&gt;Бонус!" style="whiteSpace=wrap;html=1;fillColor=#ffe6cc;strokeColor=#d79b00;" vertex="1" parent="1">
          <mxGeometry x="855" y="485" width="120" height="60" as="geometry" />
        </mxCell>
        <mxCell id="x9cxGXDTbsu_pRV74q6P-53" value="передаем worker_id &lt;br&gt;(otel_service_id)" style="text;html=1;align=center;verticalAlign=middle;resizable=0;points=[];autosize=1;strokeColor=none;fillColor=none;" vertex="1" parent="1">
          <mxGeometry x="410" y="110" width="130" height="40" as="geometry" />
        </mxCell>
      </root>
    </mxGraphModel>
  </diagram>
</mxfile>
